<?xml version="1.0" encoding="UTF-8" standalone="no"?>
<svg
   viewBox="0 0 123 100"
   version="1.1"
   id="svg4"
   sodipodi:docname="icon_blue_1.svg"
   inkscape:version="1.1.1 (3bf5ae0d25, 2021-09-20)"
   width="123"
   height="100"
   xmlns:inkscape="http://www.inkscape.org/namespaces/inkscape"
   xmlns:sodipodi="http://sodipodi.sourceforge.net/DTD/sodipodi-0.dtd"
   xmlns="http://www.w3.org/2000/svg"
   xmlns:svg="http://www.w3.org/2000/svg">
  <defs
     id="defs8" />
  <sodipodi:namedview
     id="namedview6"
     pagecolor="#505050"
     bordercolor="#eeeeee"
     borderopacity="1"
     inkscape:pageshadow="0"
     inkscape:pageopacity="0"
     inkscape:pagecheckerboard="0"
     showgrid="false"
     inkscape:zoom="1.4142136"
     inkscape:cx="-20.152542"
     inkscape:cy="-25.102289"
     inkscape:window-width="1477"
     inkscape:window-height="909"
     inkscape:window-x="2333"
     inkscape:window-y="11"
     inkscape:window-maximized="0"
     inkscape:current-layer="svg4"
     inkscape:snap-global="true"
     inkscape:snap-bbox="true"
     inkscape:bbox-paths="true"
     inkscape:bbox-nodes="true"
     inkscape:snap-bbox-edge-midpoints="true"
     inkscape:snap-bbox-midpoints="true"
     inkscape:object-paths="true"
     inkscape:snap-intersection-paths="true"
     inkscape:snap-smooth-nodes="true"
     inkscape:snap-midpoints="true"
     inkscape:snap-page="true"
     width="148px" />
  <polyline
     fill="none"
     points="38,23 65,50 38,77"
     stroke-width="8"
     stroke-linecap="round"
     stroke-linejoin="round"
     stroke="#4896fa"
     id="polyline2"
     style="stroke:#4896fa;stroke-width:8;stroke-linecap:square;stroke-linejoin:miter;stroke-miterlimit:4;stroke-dasharray:none;stroke-opacity:1"
     transform="translate(191.36033)" />
  <rect
     style="fill:#cccccc;stroke:none;stroke-width:5.19948;stroke-linecap:square;paint-order:stroke fill markers;stop-color:#000000"
     id="rect878"
     width="60"
     height="100"
     x="88.875877"
     y="140.71425" />
  <polyline
     fill="none"
     points="38,23 65,50 38,77"
     stroke-width="8"
     stroke-linecap="round"
     stroke-linejoin="round"
     stroke="#4896fa"
     id="polyline2-2-1"
     style="stroke:#4896fa;stroke-width:8;stroke-linecap:square;stroke-linejoin:miter;stroke-miterlimit:4;stroke-dasharray:none;stroke-opacity:1"
     transform="matrix(-1,0,0,1,155.34315,0)" />
  <rect
     style="fill:#cccccc;stroke:none;stroke-width:5.19948;stroke-linecap:square;paint-order:stroke fill markers;stop-color:#000000"
     id="rect878-6"
     width="60"
     height="100"
     x="0"
     y="163.71425" />
  <polyline
     fill="none"
     points="38,23 65,50 38,77"
     stroke-width="8"
     stroke-linecap="round"
     stroke-linejoin="round"
     stroke="#4896fa"
     id="polyline2-2-1-5"
     style="stroke:#4896fa;stroke-width:8;stroke-linecap:square;stroke-linejoin:miter;stroke-miterlimit:4;stroke-dasharray:none;stroke-opacity:1"
     transform="matrix(-1,0,0,1,81.5,163.71424)" />
  <g
     aria-label="開"
     id="text1846-07"
     style="font-weight:500;font-size:76.4821px;line-height:1.25;font-family:'Noto Sans JP';-inkscape-font-specification:'Noto Sans JP Medium';font-variant-ligatures:none;text-align:center;letter-spacing:0px;word-spacing:0px;text-anchor:middle;fill:#4896fa;stroke-width:1.59338"
     transform="translate(-10.75189)">
    <path
       d="m 32.845035,21.778105 v 5.124301 H 18.160472 V 21.778105 Z M 18.160472,37.380453 V 31.79726 h 14.684563 v 5.583193 z m 21.338506,5.200783 V 16.50084 H 11.124119 v 67.151285 h 7.036353 V 42.581236 Z m -1.83557,17.361437 v -7.265799 h 9.10137 v 7.265799 z m 24.933165,5.889122 v -5.889122 h -9.483781 v -7.265799 h 7.954139 V 47.017198 H 23.973112 v 5.659676 h 7.571728 v 7.265799 h -8.948406 v 5.889122 h 8.718959 c -0.611856,4.206516 -2.753355,9.942673 -8.413031,13.384368 1.45316,0.994267 3.594659,2.90632 4.588926,4.206515 6.959872,-4.665408 9.407299,-12.466582 10.019156,-17.590883 h 9.254334 v 16.443652 h 6.348014 V 65.831795 Z M 52.195007,37.533418 V 31.79726 h 15.143456 v 5.736158 z M 67.338463,21.778105 v 5.124301 H 52.195007 V 21.778105 Z M 74.374817,16.50084 H 45.3881 v 26.233361 h 21.950363 v 32.122482 c 0,1.147232 -0.38241,1.529642 -1.529642,1.606124 -1.223713,0 -5.124301,0 -9.024888,-0.07648 1.07075,1.912053 2.065017,5.124301 2.294463,7.036353 5.736158,0.07648 9.560263,-0.152964 12.00769,-1.300195 2.52391,-1.223714 3.288731,-3.288731 3.288731,-7.189318 z"
       id="path858" />
  </g>
  <polyline
     fill="none"
     points="38,23 65,50 38,77"
     stroke-width="8"
     stroke-linecap="round"
     stroke-linejoin="round"
     stroke="#4896fa"
     id="polyline2-2-7"
     style="stroke:#4896fa;stroke-width:8;stroke-linecap:square;stroke-linejoin:miter;stroke-miterlimit:4;stroke-dasharray:none;stroke-opacity:1"
     transform="matrix(-1,0,0,1,166.43794,-143.57648)" />
  <text
     xml:space="preserve"
     style="font-style:normal;font-variant:normal;font-weight:500;font-stretch:normal;font-size:76.4821px;line-height:1.25;font-family:'Noto Sans JP';-inkscape-font-specification:'Noto Sans JP Medium';font-variant-ligatures:none;text-align:center;letter-spacing:0px;word-spacing:0px;text-anchor:middle;fill:#4896fa;fill-opacity:1;stroke-width:1.59338"
     x="38.339275"
     y="-65.966438"
     id="text1846-07-7"><tspan
       sodipodi:role="line"
       id="tspan1844-9-2"
       x="38.339275"
       y="-65.966438"
       style="font-style:normal;font-variant:normal;font-weight:500;font-stretch:normal;font-family:'Noto Sans JP';-inkscape-font-specification:'Noto Sans JP Medium';fill:#4896fa;fill-opacity:1;stroke-width:1.59338">開</tspan></text>
  <rect
     style="fill:#cccccc;stroke:none;stroke-width:4;stroke-linecap:square;paint-order:stroke fill markers;stop-color:#000000"
     id="rect5170"
     width="11.12412"
     height="9.4903345"
     x="168.75"
     y="91.661789" />
</svg>
